<svg height="36" viewBox="0 0 36 36" width="36" xmlns="http://www.w3.org/2000/svg"><path fill="white" d="m17.9991429 0c-9.93942861 0-17.9991429 8.058-17.9991429 18.0008571 0 7.9517143 5.15742857 14.6982858 12.3102857 17.0794286.9.1645714 1.2291429-.3908571 1.2291429-.8682857 0-.4268571-.0162857-1.5591429-.0248572-3.0608571-5.0065714 1.0868571-6.06342854-2.4137143-6.06342854-2.4137143-.81857143-2.0785715-1.99885715-2.6322857-1.99885715-2.6322857-1.63371428-1.1177143.12428572-1.0937143.12428572-1.0937143 1.806.1268571 2.75742857 1.8548571 2.75742857 1.8548571 1.60542857 2.7505714 4.2128571 1.956 5.238 1.4948572.1628571-1.1631429.6282857-1.956 1.1425714-2.406-3.9968571-.4542858-8.1985714-1.9988572-8.1985714-8.8962858 0-1.9654285.70114286-3.5717142 1.85228571-4.83-.18514285-.456-.80314285-2.28514281.17657143-4.76399996 0 0 1.51114286-.48342857 4.94999996 1.84542857 1.4357143-.39942857 2.9751429-.59914285 4.506-.606 1.5282858.00685715 3.0685715.20657143 4.5068572.606 3.4362857-2.32885714 4.944-1.84542857 4.944-1.84542857.9831428 2.47885715.3651428 4.30799996.1791428 4.76399996 1.1545715 1.2582858 1.8505715 2.8645715 1.8505715 4.83 0 6.9154286-4.2085715 8.436-8.2182857 8.8825715.6462857.5554285 1.2214285 1.6534285 1.2214285 3.3325714 0 2.4068571-.0214285 4.3482857-.0214285 4.938 0 .4817143.324 1.0414286 1.2377142.8657143 7.146-2.3845714 12.2991429-9.1277143 12.2991429-17.0768572 0-9.9428571-8.0597143-18.0008571-18.0008571-18.0008571"></path></svg>